<svg xmlns="http://www.w3.org/2000/svg" version="1.1" xmlns:xlink="http://www.w3.org/1999/xlink" viewBox="0 0 5.083947218390519 4.00073607537772"><g transform="matrix(0.8408806481244783,0,0,0.8408806481244783,2.541135397959034,3.521806665561938)"><rect width="5.8410041595378726" height="5.8410041595378726" x="-2.919505254312083" y="-4.72984164688412" fill="#cccccc"></rect><g transform="matrix(1,0,0,1,0,0)"><path d=" M -1.3233855425282577 -1.9036451623928443 Q -1.3456774053939755 -1.875908492622015 -1.382201676248966 -1.8620890266948784 Q -1.4511074405846998 -1.8372496297354444 -1.4991893305170663 -1.8221373214891248 Q -1.547271220449433 -1.8070250132428052 -1.633188044410679 -1.7880698197483496 Q -1.6617180190002614 -1.782066441539559 -1.684102048543404 -1.7601813959281896 Q -1.7100106967852085 -1.7342248563613976 -1.729773399980573 -1.6923866493920265 L -1.7304272003655705 -1.6904965316558584 Q -1.7346769028680549 -1.6782107663707662 -1.7157757255063744 -1.6716727625207903 L -1.5494453647235866 -1.614138328641003 Q -1.4795110084853689 -1.5899477143960923 -1.4462679891709416 -1.6493438562477363 Q -1.4378755092942102 -1.6644291564276683 -1.4314800722818837 -1.6706820266023452 Q -1.4250846352695572 -1.6769348967770223 -1.418469223192969 -1.6746465954295309 Q -1.4080735756440448 -1.6710506933120441 -1.4175536812265097 -1.6436439861376075 Q -1.428014487386471 -1.6134021023589187 -1.4402941278637758 -1.5901381725587294 Q -1.4490135079330062 -1.5741078135107132 -1.4562053121679797 -1.5533165184128648 Q -1.4620895156329579 -1.5363054587873524 -1.4667195808920594 -1.5183315194390499 Q -1.471349646151161 -1.5003575800907472 -1.4739648476911513 -1.492797109146075 Q -1.483260619918767 -1.453687153652719 -1.4920869251162343 -1.4281705642144504 Q -1.5015670306986992 -1.4007638570400138 -1.5119626782476236 -1.4043597591575006 Q -1.5185780903242116 -1.406648060504992 -1.5197431242565576 -1.4155161322196594 Q -1.5209081581889032 -1.4243842039343266 -1.5181860315206759 -1.4414309052692516 Q -1.512052336089811 -1.4805765024720199 -1.522088504140718 -1.5020363564056782 Q -1.5321246721916248 -1.5234962103393368 -1.5661467914426497 -1.5352646172692932 L -1.9687418692464431 -1.6745240992737787 Q -2.0084343417059722 -1.6882539073587277 -2.026117022571188 -1.6906669546891626 Q -2.043799703436404 -1.6930800020195975 -2.055446426787311 -1.6838819677085375 Q -2.0670931501382186 -1.6746839333974775 -2.0794084323249353 -1.6482579268005373 Q -2.0855838942730003 -1.6334638851036916 -2.094032899117744 -1.6273922858799703 Q -2.102481903962488 -1.6213206866562488 -2.109097316039076 -1.6236089880037403 Q -2.119492963588 -1.627204890121227 -2.1100128580055353 -1.6546115972956636 Q -2.0959561497280874 -1.6952491286232767 -2.090761388357519 -1.7072079937158702 L -2.07703158027257 -1.746900466175399 Q -2.072128077385088 -1.7610763491966595 -2.064211189346292 -1.7900819156241776 Q -2.0493937555556094 -1.8420957950782113 -2.044163352475629 -1.8572167369675556 Q -2.0082043313007616 -1.961173212456798 -1.9501876272065943 -2.0019477393829295 Q -1.8921709231124266 -2.042722266309061 -1.815621154797621 -2.0162433507166586 Q -1.7135547970445466 -1.9809381299267892 -1.6954254876743629 -1.849807171942947 Q -1.6954611293837751 -1.8466450951461961 -1.691680893911439 -1.845337494376201 Q -1.688845717307187 -1.8443567937987047 -1.6831397223892703 -1.8455574694404628 Q -1.5727644177938644 -1.874040659842371 -1.511980758110376 -1.8937535164461674 Q -1.4511970984268872 -1.913466373049964 -1.3767340308186742 -1.954371770766826 Q -1.3490421899689387 -1.9701882795583678 -1.3351993319479647 -1.9918533501054758 Q -1.3213564739269907 -2.0135184206525834 -1.3079535660345403 -2.0522658342440283 Q -1.3030500631470585 -2.0664417172652887 -1.292654415598134 -2.062845815147802 Q -1.2746982971045377 -2.056634711490325 -1.2758006812610836 -2.028975449946108 Q -1.2769030654176294 -2.001316188401891 -1.2860562708075955 -1.9748545400955386 Q -1.3010936796625399 -1.9313818321636735 -1.3233855425282577 -1.9036451623928443 M -1.7327995883161187 -1.8167061658975125 Q -1.7408952384706329 -1.8560121507926364 -1.766979586424262 -1.8846103463971497 Q -1.7930639343778911 -1.9132085420016631 -1.8299212302331678 -1.925957649509116 Q -1.8970204098671335 -1.9491675631765304 -1.944157240931416 -1.933728354737712 Q -1.9912940719956986 -1.9182891462988936 -2.0197343887430934 -1.8360690247755835 Q -2.029868294710556 -1.8067721998649788 -2.014872098804155 -1.7904745279963703 Q -1.999875902897754 -1.7741768561277615 -1.9494965244062143 -1.7546341279966589 Q -1.8858863217614985 -1.730514797170573 -1.789490317216928 -1.697170977535696 Q -1.7677539632509958 -1.6896522731082237 -1.758160807732506 -1.6990315783702394 Q -1.7485676522140163 -1.708410883632255 -1.7390875466315514 -1.7358175908066915 Q -1.7247039381616045 -1.7774001810023885 -1.7327995883161187 -1.8167061658975125 M -1.1868743588000832 -2.2230240447291476 Q -1.2837063070621835 -2.2259521491955083 -1.3639555266988361 -2.3124626268713846 L -1.5727395133806357 -2.537536496756927 Q -1.595182091753598 -2.5617301049205197 -1.6166142744097658 -2.5657190329209545 Q -1.6380464570659337 -2.5697079609213898 -1.6561096405549234 -2.559772096477715 Q -1.686423951911142 -2.5439277748766416 -1.695264967633824 -2.5534585902138143 Q -1.7027458270914781 -2.561523126268345 -1.6814847774931694 -2.581245392111251 L -1.649279694783853 -2.6097556121680325 Q -1.6244590699965535 -2.6300518331258385 -1.609063137528813 -2.644333473908633 L -1.5745525128779194 -2.677710363910626 Q -1.5664349153145818 -2.686604441142115 -1.551772122488162 -2.7002060037923954 Q -1.5305110728898534 -2.719928269635301 -1.5230302134321994 -2.7118637335807705 Q -1.5189497446371154 -2.7074648957328447 -1.5213614095963062 -2.6997717902399625 Q -1.5237730745554972 -2.692078684747081 -1.533622258945512 -2.6747583623813886 Q -1.5411659013939496 -2.6623047099609085 -1.5374882546559063 -2.637754253458632 Q -1.533810607917863 -2.613203796956356 -1.515448498339985 -2.5934090266406895 L -1.3243465431035495 -2.3873967874294926 Q -1.2454574797319249 -2.302352589036258 -1.1642239884908163 -2.2985949433929393 Q -1.082990497249708 -2.2948372977496203 -1.0126090916828931 -2.360124798470965 Q -0.9392951275507947 -2.4281326117223654 -0.9502701455151292 -2.5127496843536172 Q -0.9612451634794639 -2.5973667569848686 -1.0435346175136586 -2.686076653584708 Q -1.0850193835970128 -2.7307981717052883 -1.1926839745694535 -2.840981363938664 Q -1.2219803957763626 -2.8710931507416313 -1.2500541752312497 -2.886653128476781 Q -1.2781279546861368 -2.9022131062119314 -1.2968712163076406 -2.893010381409577 Q -1.3271855276638589 -2.877166059808504 -1.334666387121513 -2.885230595863035 Q -1.342147246579167 -2.8932951319175655 -1.3208861969808585 -2.9130173977604716 L -1.2652206457492707 -2.963290118057701 Q -1.251290992564172 -2.976211602575467 -1.2321232388722123 -2.9967200695685015 L -1.2078765691998128 -3.0205758657152986 Q -1.1866155196015042 -3.0402981315582047 -1.1791346601438502 -3.0322335955036737 Q -1.170293644421168 -3.022702780166501 -1.1897267056571625 -2.995128224304292 Q -1.2180635656066228 -2.9565662953042446 -1.1753778277846614 -2.9061388445795178 Q -1.1368256202665912 -2.8586970139288814 -1.0947403683139334 -2.8111225295062283 Q -1.0526551163612754 -2.7635480450835743 -1.0384265370872883 -2.746738894841999 Q -1.0187042712443821 -2.7254778452436903 -0.9807260188412119 -2.681595589782045 Q -0.9305063600527894 -2.624516820776622 -0.9150215204819266 -2.5563591378387125 Q -0.8995366809110639 -2.4882014549008025 -0.9200093023097828 -2.423516667098223 Q -0.9404819237085018 -2.3588318792956438 -0.9940011175249337 -2.3091861756221217 Q -1.090042410537983 -2.220095940262787 -1.1868743588000832 -2.2230240447291476 M -0.11167087040756707 -2.726197685783468 Q -0.14136187504574693 -2.736671187756332 -0.16844975732159706 -2.7600858548222904 Q -0.17898724087309437 -2.7699327548625026 -0.3139369940893362 -2.8696564436574694 Q -0.44888674730557804 -2.9693801324524363 -0.5101053641868836 -3.015578411069068 Q -0.6095208744148222 -3.088739577859372 -0.6270446513550141 -3.1020781400663866 Q -0.6433658452606348 -3.1146725288762944 -0.6511528709873471 -3.1128388903264375 Q -0.6560197620665423 -3.111692866232777 -0.6564766871764619 -3.1049074981923592 Q -0.6569336122863815 -3.0981221301519413 -0.6550999737365248 -3.090335104425229 Q -0.6033532745888972 -2.8487646610193256 -0.5740150577911913 -2.724172249391928 Q -0.55842913011741 -2.657982530714873 -0.4933824664789265 -2.660971100523658 Q -0.4761474223534665 -2.661947447794586 -0.46744357735182596 -2.659887573481086 Q -0.4587397323501853 -2.6578276991675867 -0.4571352986190607 -2.6510140516567136 Q -0.4546140456130079 -2.640306891282484 -0.4828420138723401 -2.633659951539254 Q -0.5188570078583846 -2.625179373246167 -0.5390121866313617 -2.6235154115190427 Q -0.5589381605856067 -2.620878071576079 -0.5754855902548703 -2.616981589657634 Q -0.590086263492456 -2.6135435173766526 -0.6090954181717727 -2.607012664570333 Q -0.6463695541332991 -2.5951535419922647 -0.6629169838025628 -2.5912570600738194 Q -0.691144952061895 -2.584610120330589 -0.6936662050679478 -2.5953172807048186 Q -0.6950414339803404 -2.601157549999853 -0.6886579166364758 -2.6067700990037 Q -0.6822743992926114 -2.6123826480075465 -0.6658996155011689 -2.621375225823919 Q -0.6194661939556269 -2.6466919666010016 -0.6282384741185348 -2.714486119009181 Q -0.6363231398252465 -2.779360136769843 -0.6562966921080263 -2.8881790561230836 Q -0.6762702443908061 -2.996997975476324 -0.7023995937262628 -3.1079630920819747 Q -0.7136306298441346 -3.1556586246580878 -0.7429793117817609 -3.1734041837792892 Q -0.7723279937193873 -3.1911497429004902 -0.8246641816110526 -3.195263553417311 Q -0.8341122000098002 -3.1961208446962397 -0.8463091917057881 -3.1999265500931404 Q -0.8585061834017761 -3.203732255490041 -0.8603398219516327 -3.211519281216754 Q -0.8621734605014894 -3.2193063069434658 -0.8555607383388928 -3.2239454777314736 Q -0.8489480161762962 -3.2285846485194813 -0.8411609904495838 -3.230418287069338 L -0.7723369008846547 -3.2435424897330662 Q -0.7251563368869165 -3.252597564600528 -0.6901147211167111 -3.260848938074883 Q -0.6823276953899987 -3.2626825766247394 -0.6771452765531608 -3.260307174553597 Q -0.6719628577163228 -3.2579317724824546 -0.6628571620181287 -3.2498024240551886 Q -0.647280141509615 -3.23600545221071 -0.4506816412450587 -3.086075369526389 Q -0.25408314098050255 -2.936145286842068 -0.17030121020198852 -2.872658374214155 Q -0.14916968415808318 -2.8570872918158194 -0.14138265843137088 -2.858920930365676 Q -0.13262225448881948 -2.8609837737342647 -0.13646217746635414 -2.8816539210856167 Q -0.1519349872583139 -2.9560890751268483 -0.22780178225863135 -3.278277264569571 Q -0.23290084721164772 -3.2955688676359416 -0.2557782043389544 -3.3076468033399298 Q -0.27865556146626097 -3.319724739043918 -0.29686398380756 -3.3185191869542576 Q -0.34249964207017347 -3.3159919958380266 -0.3452500998949584 -3.3276725344280953 Q -0.3463961239886188 -3.3325394255072904 -0.33442982163890744 -3.3384392227983244 Q -0.32246351928919614 -3.3443390200893583 -0.3078628460516105 -3.3477770923703396 L -0.25238028774878507 -3.360841767038068 L -0.20394058177556518 -3.3732753861905107 Q -0.17325088850617998 -3.3825566968216156 -0.14112940738349156 -3.390120455839774 Q -0.1129014391241594 -3.3967673955830042 -0.11038018611810652 -3.3860602352087747 Q -0.1071713186558575 -3.372432940187028 -0.1379175708661533 -3.3590289118738355 Q -0.17232813112107337 -3.343734686069875 -0.18148741670508894 -3.3302770678708606 Q -0.19064670228910474 -3.3168194496718466 -0.18686333825248092 -3.292026584638406 Q -0.1805587212098042 -3.2565265592307364 -0.0826882636112074 -2.840894061067466 Q -0.07352007086192425 -2.8019589324339043 -0.06137518452421342 -2.767834135938627 L -0.055588505115000686 -2.747622398224739 Q -0.04985838464669878 -2.723287942828763 -0.07029932717931864 -2.7184746416353898 Q -0.0819798657693872 -2.7157241838106048 -0.11167087040756707 -2.726197685783468 M 0.06607489547269407 -2.747727627371094 Q 0.05929723595021717 -2.753233381760583 0.060896519369541255 -2.759016312898395 Q 0.06436163344474344 -2.771545997030321 0.09883322706824933 -2.7723881567870583 Q 0.12918298602999323 -2.77333268363371 0.1538212744154763 -2.7836382522950585 Q 0.17845956280095937 -2.7939438209564074 0.20224604392487974 -2.823679377378667 Q 0.28584736516847503 -2.927138640310147 0.3504397785295281 -3.0125102991683117 Q 0.4150321918905812 -3.0978819580264765 0.5077579322337389 -3.2268313166050024 Q 0.5266229369862352 -3.2537777745482703 0.5367111779420994 -3.279001322958762 Q 0.5398691907475595 -3.2791655031054017 0.5518860574229716 -3.2794735863820876 Q 0.5639029240983835 -3.2797816696587736 0.5754069733172815 -3.2838629502873475 Q 0.5847168315870215 -3.287513503532727 0.5922525967790286 -3.297879903243858 Q 0.5997883619710358 -3.3082463029549887 0.6027821946298557 -3.311568495907089 Q 0.6040125637227118 -3.312265770526837 0.6053250228888878 -3.3113840387438547 Q 0.6066374820550637 -3.3105023069608728 0.6073347566748117 -3.309271937868017 Q 0.6079296642046457 -3.303919734113399 0.6077761135697746 -3.297736982120756 Q 0.6076225629349035 -3.2915542301281127 0.6082174704647374 -3.286202026373495 Q 0.6174347817139996 -3.0419070383501334 0.6374415365666486 -2.7240757470016166 Q 0.6410940538259158 -2.6660011474104803 0.6580642854080583 -2.6410760347718494 Q 0.6750345169902008 -2.616150922133218 0.7081328203977484 -2.600772290479462 Q 0.7227543283889184 -2.5936160691256918 0.7292142571298843 -2.5850855755490194 Q 0.73567418587085 -2.5765550819723475 0.7338083552149719 -2.5698083289782336 Q 0.7311428828494317 -2.5601701104152137 0.7031920490166741 -2.5678999802752798 L 0.6516787632494745 -2.584221174761801 Q 0.5987709282427789 -2.6030031074340334 0.5708200944100212 -2.6107329772941 L 0.4693522522617579 -2.6377566152759693 Q 0.44140141842900016 -2.645486485136036 0.4445999852676483 -2.6570523474116596 Q 0.4461992686869724 -2.6628352785494718 0.45682158612288837 -2.6656041000118695 Q 0.4674439035588044 -2.6683729214742673 0.4814705040201403 -2.666568903875115 Q 0.542929109620102 -2.65994774100834 0.5522582628994925 -2.6936815059789097 Q 0.5607877744692209 -2.7245238053805734 0.557849862825465 -2.860215988925439 Q 0.5577880497687391 -2.8674958363926613 0.5530201240321861 -2.870889489906312 Q 0.5482521982956332 -2.874283143419963 0.5347586923074054 -2.8780148047317193 L 0.35259636146632883 -2.928392232440428 Q 0.3419943210470069 -2.931324252042522 0.3314135396512227 -2.9155747420484106 Q 0.31228198766217236 -2.887664462248841 0.28409747713511074 -2.8420258451975986 Q 0.25591296660804913 -2.796387228146356 0.253514041479063 -2.787712831439638 Q 0.24791654951142872 -2.7674725724572964 0.2598214015921014 -2.748617215209625 Q 0.27172625367277403 -2.729761857961954 0.29422251666099974 -2.717315245910292 Q 0.31023857389166554 -2.7076982863708094 0.3164010488677145 -2.7018438946714465 Q 0.32256352384376336 -2.6959895029720835 0.32069769318788527 -2.689242749977969 Q 0.3177656735857911 -2.6786407095586475 0.28981483975303335 -2.686370579418714 Q 0.2724660463395975 -2.691168429676686 0.2611667313005276 -2.6953308183716365 L 0.20264014530266003 -2.7125540216577333 Q 0.18625517374552616 -2.7170853246791515 0.1660970048365043 -2.7211038102440557 Q 0.14593883592748244 -2.72512229580896 0.13630061736446253 -2.7277877681745 Q 0.10851396367834468 -2.7323596252291065 0.08538223912709686 -2.738756758906403 Q 0.07285255499517096 -2.742221872981605 0.06607489547269407 -2.747727627371094 M 0.5368079981195739 -2.9116867566455635 Q 0.5425909292573858 -2.9100874732262394 0.5467127639191478 -2.9099851061363253 Q 0.5508345985809098 -2.9098827390464113 0.5516342402905718 -2.912774204615317 L 0.552372068943508 -2.922945517651445 L 0.542231489871132 -3.1789087350403444 Q 0.5412464089912923 -3.197856811873104 0.5383549434223862 -3.198656453582766 Q 0.5364272997097823 -3.199189548055874 0.5261130655505522 -3.1844038599180644 L 0.3731012036713374 -2.9725233036504917 L 0.3690411820663013 -2.9653458232731835 Q 0.36770844588353124 -2.9605267139916736 0.3717790970003362 -2.9583634295708787 Q 0.37584974811714117 -2.9562001451500834 0.38741561039276506 -2.9530015783114356 L 0.5368079981195739 -2.9116867566455635 M 0.763960798988077 -2.54351087472582 Q 0.7686462898130493 -2.5487114685120242 0.7772672488972663 -2.546328389732744 Q 0.7858882079814832 -2.5439453109534633 0.8005262889586804 -2.5347950877154752 Q 0.8334435746230444 -2.5145601598804013 0.8552606044104725 -2.517113042810439 Q 0.8770776341979005 -2.519665925740477 0.9018437999870395 -2.547154778610411 L 1.2030539244495395 -2.881478664866367 Q 1.2258120227422618 -2.9067386918279277 1.2250797016672088 -2.927588480935807 Q 1.2243473805921559 -2.948438270043686 1.2008010765777362 -2.9790743854511677 Q 1.180300126578466 -3.005620779728497 1.1896711082284106 -3.0160219673009045 Q 1.1970340223819385 -3.024194328964939 1.218579339496211 -3.004783009832911 L 1.2639723857704483 -2.9625400062708422 Q 1.2744471594801745 -2.9517567268193012 1.3004501284111933 -2.92832927269444 Q 1.3212525035560083 -2.909587309394551 1.3300942210521818 -2.902967337210481 L 1.373854211112866 -2.8648876409158834 Q 1.3953995282271388 -2.8454763217838552 1.388036614073611 -2.837303960119821 Q 1.3786656324236666 -2.826902772547413 1.3501324124387297 -2.8445338631912507 Q 1.3201133085148777 -2.8635036654993655 1.3023456664908073 -2.8579754743933625 Q 1.2845780244667373 -2.8524472832873586 1.262489282006154 -2.8279301982952556 L 1.1373197413961815 -2.6890000500066695 Q 1.1246019805855427 -2.6748841525869738 1.1283166904328312 -2.671537373426279 Q 1.1320314002801195 -2.668190594265585 1.141656393112545 -2.6669219284404906 Q 1.1512813859449702 -2.665653262615397 1.1604245285866885 -2.6668377214087675 L 1.4455615122345575 -2.684526716750356 Q 1.4667459792585062 -2.6856305088101378 1.4767863167405895 -2.696774638352003 Q 1.4821411633977006 -2.7027181741076642 1.482777266459315 -2.7108940760698337 Q 1.4834133695209295 -2.719069978032003 1.478065603460088 -2.7265800644601685 Q 1.4687823691400022 -2.741673823453818 1.4662591986823537 -2.749331082156621 Q 1.4637360282247056 -2.756988340859424 1.4684215190496777 -2.7621889346456276 Q 1.4757844332032057 -2.7703612963096624 1.4973297503174783 -2.7509499771776342 L 1.5374486166681929 -2.7148047622421343 Q 1.5545362819657196 -2.69940957810294 1.6345532562551925 -2.63135604163673 L 1.6604826390488925 -2.609340885313465 Q 1.6679120587434695 -2.6026473269920762 1.6703616430637989 -2.59640236609087 Q 1.6728112273841282 -2.5901574051896636 1.6694644482234338 -2.586442695342375 Q 1.6600934665734894 -2.5760415077699674 1.6315602465885526 -2.593672598413805 Q 1.5503446523131696 -2.6439620331540796 1.4744555823098184 -2.6463805149147093 Q 1.404215703512854 -2.6490933412246136 1.3445277248610692 -2.6463374013732937 Q 1.2848397462092844 -2.643581461521974 1.2066411835639719 -2.63596668639679 Q 1.2038165879607787 -2.635819514122152 1.201808520464362 -2.633590688213779 Q 1.1977923854715287 -2.6291330363970333 1.1983074884327602 -2.619246951785857 L 1.2054056403496851 -2.2655838122881646 Q 1.2053037318272875 -2.213181621354454 1.2102361532384707 -2.1932587395593295 Q 1.2151685746496539 -2.1733358577642052 1.239604992908169 -2.139205790921392 Q 1.2503005250298513 -2.124185618065061 1.2531951664722285 -2.1161936814461884 Q 1.2560898079146057 -2.108201744827316 1.2520736729217723 -2.10374409301057 Q 1.2447107587682444 -2.095571731346536 1.223165441653972 -2.1149830504785636 Q 1.1934477628756646 -2.141757283764119 1.1716816873494356 -2.1654054963009366 Q 1.1433027202354062 -2.1936656135254076 1.1232432870600488 -2.2117382209931575 L 1.1024409119152336 -2.2304801842930466 Q 1.092113310480145 -2.2384388681413943 1.062395631701838 -2.2652131014269496 Q 1.0408503145875652 -2.284624420558978 1.048213228741093 -2.292796782223012 Q 1.0528987195660653 -2.297997376009216 1.0596991167952974 -2.2965815379094843 Q 1.0664995140245295 -2.295165699809753 1.0796517110628114 -2.2873541882360424 Q 1.1051395770325987 -2.2738128187223574 1.1138412028504043 -2.2834710643253073 Q 1.1191960495075153 -2.2894146000809688 1.1194309691120112 -2.3120849510438326 L 1.1185565363074834 -2.627836808310374 Q 1.117305571973064 -2.6518458709375157 1.1128479201563177 -2.655862005930349 Q 1.109876152278487 -2.6585394292589046 1.1005051706285427 -2.648138241686497 Q 1.0596744648680705 -2.602818781549579 0.9710180698801921 -2.4969460106037245 Q 0.9484071438621074 -2.4688613880389703 0.9437110321427307 -2.443480360977026 Q 0.9390149204233537 -2.4180993339150825 0.9610017543615391 -2.390214227973475 Q 0.971623700345903 -2.376606352918741 0.9748898127730089 -2.3682797383837992 Q 0.9781559252001147 -2.3599531238488574 0.9734704343751426 -2.3547525300626537 Q 0.9661075202216147 -2.346580168398619 0.9445622031073421 -2.365991487530647 Q 0.9207880600846963 -2.3874108741590914 0.9041489922073522 -2.4077858936725334 Q 0.8927841042535307 -2.4220631245594064 0.8764393809254617 -2.4367889528664617 Q 0.8638093674446812 -2.448168002012823 0.8498038492309634 -2.458767316121067 Q 0.8357983310172458 -2.469366630229311 0.8298547952615843 -2.474721476886422 Q 0.7989455770936369 -2.4971852306298694 0.7781432019488219 -2.515927193929758 Q 0.7565978848345493 -2.535338513061786 0.763960798988077 -2.54351087472582 M 1.357122160420316 -1.908373357964651 Q 1.3698811054147844 -1.9944646427885409 1.4247375041464676 -2.062919193537126 Q 1.4795939028781508 -2.131373744285711 1.5697762294481696 -2.164284957791421 Q 1.656200959077771 -2.1958248707343935 1.7450659035134997 -2.185674912584978 Q 1.8339308479492282 -2.175524954435562 1.905889246684495 -2.1198182326557236 Q 1.977847645419762 -2.0641115108758847 2.0145299354730017 -1.963595792719718 Q 2.0446985478532365 -1.880928660030534 2.031939602858768 -1.794837375206644 Q 2.0191806578643003 -1.708746090382754 1.9643242591326169 -1.6402915396341693 Q 1.9094678604009336 -1.5718369888855843 1.8192855338309146 -1.538925775379874 Q 1.7328608042013132 -1.5073858624369014 1.6439958597655848 -1.5175358205863172 Q 1.5551309153298563 -1.5276857787357332 1.4831725165945895 -1.5833925005155716 Q 1.4112141178593225 -1.6390992222954102 1.3745318278060827 -1.739614940451577 Q 1.344363215425848 -1.8222820731407612 1.357122160420316 -1.908373357964651 M 1.5411615202173246 -1.6024260356271163 Q 1.6266764503574624 -1.5708278280335306 1.7403437578050904 -1.612309670056353 Q 1.829586685140005 -1.6448780584213791 1.8910390979280867 -1.6981753469314262 Q 1.9524915107161682 -1.7514726354414738 1.974925156229639 -1.8198044109853297 Q 1.9973588017431099 -1.888136186529186 1.9695899653476667 -1.9642275245726395 Q 1.9315363747316892 -2.0685008396692237 1.8469608438266554 -2.1004418724034943 Q 1.762385312921622 -2.1323829051377645 1.6496574047090984 -2.0912438882556263 Q 1.5604144773741837 -2.0586754998906005 1.4978512527806556 -2.0055050858574206 Q 1.4352880281871274 -1.9523346718242411 1.4123846830561044 -1.8838314837100427 Q 1.3894813379250812 -1.8153282955958443 1.4172501743205244 -1.739236957552391 Q 1.4556465900771867 -1.6340242432207024 1.5411615202173246 -1.6024260356271163" fill="url(#gradient-1e5fabf5-adc8-4d96-b868-42b501d6653d)" fill-rule="nonzero"></path></g><g transform="matrix(1,0,0,1,0,0)"><g transform="matrix(1,0,0,1,0,0)" clip-path="url(#SvgjsClipPath155899)"><g clip-path="url(#SvgjsClipPath155894c3d6d31e-f443-45bd-9537-83d215ae4d40)"><path d=" M 0.5117141601275952 -0.32142519034589245 C 0.5514336765912584 -0.3431203553254474 0.5895993698956286 -0.3675463990402468 0.625936070870351 -0.3945272132212614 L 0.5419829664744322 -0.5258824105754429 L 0.5419829664744322 -0.5258824105754429 L 0.5311318849538822 -0.5407312589720026 L 0.5025764072681784 -0.5841355850542533 L 0.49315309963189824 -0.5986988786739553 L 0.5065741741441836 -0.6095499601945185 C 0.6380213023328343 -0.7167272795585333 0.7323442121810857 -0.8626080511458816 0.77613788349713 -1.0264599344056122 C 0.8197978802063624 -1.1897488600490433 0.8107024312225131 -1.3626623407308307 0.750152398803126 -1.5204696983680734 C 0.7240366184353804 -1.5889256580765787 0.6886809427962295 -1.6534881962002639 0.6450682409197865 -1.7123625084159184 C 0.6062110753348422 -1.7653396372586996 0.5609388368237831 -1.8132975170373662 0.5102863862433253 -1.855139896844376 L 0.4386121372522498 -1.7166458300687721 C 0.4743743889379368 -1.6842739217584612 0.5063686561482728 -1.6479690496844532 0.5339874327224574 -1.6084205696400002 C 0.5647161678930959 -1.5640941444995207 0.5898453179605236 -1.5161377512410663 0.6088027842589596 -1.465643181211545 C 0.668775125790324 -1.3093730357433953 0.666115486799626 -1.1359850323113414 0.6013783600606999 -0.9816278344390768 C 0.5399631142682599 -0.8340722920742767 0.42643974755934355 -0.7142477179025575 0.28241367431151665 -0.644958752524776 L 0.3737912029057191 -0.5021813640963197 L 0.40234668059142287 -0.45849148323721245 L 0.4140544264425512 -0.4405015322952268 L 0.3946367016162877 -0.4307926698820923 C 0.38207229143459287 -0.4247960195680971 0.36950788125287404 -0.4187993692541012 0.3572290258480426 -0.4133738284938202 C 0.3449501704432112 -0.4079482877335394 0.3312435411540624 -0.40252274697325774 0.318964685749207 -0.3976683157666905 C 0.09751957350941876 -0.3128667977104145 -0.14858115226204505 -0.3197514526693661 -0.3649390048230945 -0.4168004858161036 C -0.5816237170261844 -0.5131783325940702 -0.7509055533545422 -0.6920188882779366 -0.8352477223064273 -0.9136657975471327 C -0.8435288108352774 -0.9350824058114009 -0.8506676802566974 -0.9567845688525265 -0.8572354401244142 -0.9787722866705091 C -0.8623754261078258 -0.99533446372821 -0.8666587477606944 -1.0121821955627683 -0.8706565146366877 -1.0290299273973254 L -1.0242849845857092 -1.021891057975903 C -1.0194305533791495 -0.9981900114967799 -1.013719457842011 -0.9744889650176554 -1.0068661431974544 -0.9505023637616747 C -0.998299499891729 -0.9202335574148421 -0.9883050827017457 -0.8899647510680087 -0.9768828916274689 -0.8596959447211763 C -0.8780652023086917 -0.6005362706395205 -0.6801819650964323 -0.391351290907338 -0.4269043914010383 -0.2783064190404998 C -0.17390985960481764 -0.16496588790300892 0.11380779855050416 -0.15705365230373802 0.3726489837982889 -0.25631870122251676 C 0.4202914125737218 -0.27461647023859115 0.4665727591185844 -0.2962780489307206 0.5111430505739158 -0.32113963556903635 Z M -0.012278855404831424 -2.278617630923177 C 0.10412361315852348 -2.280079109771908 0.21994851160985207 -2.2620297297632437 0.33038687682346013 -2.225218887650935 L 0.25985484693980276 -2.0887237043133284 C 0.16836842332642865 -2.1164966325769816 0.07301945835410661 -2.1294155014407736 -0.022558827371678136 -2.1269880444121556 C -0.12360502459929468 -2.124277286590426 -0.22345244946305876 -2.1043850530102146 -0.31782246664172953 -2.0681637603796315 C -0.47747844416115304 -2.007637743092561 -0.6162861200876426 -1.902342206068317 -0.717599154241405 -1.7649045873575897 C -0.8199461871546009 -1.627334019477181 -0.880784969169941 -1.463346748735506 -0.8929297872315619 -1.2923114316593989 L -0.8929297872315619 -1.270609268618273 L -0.8712276241904265 -1.270609268618273 L -0.8195422095793294 -1.272893706833128 L -0.8012667038604842 -1.272893706833128 L -0.8012667038604842 -1.272893706833128 L -0.6502082269031744 -1.2797470214776943 C -0.6535278621709977 -1.235856499341423 -0.6522837950791707 -1.191739966315775 -0.6464960148040564 -1.1481062693466575 C -0.6400218204476997 -1.0967972506297834 -0.6273655042721678 -1.0464596294770738 -0.6088027842589477 -0.9981900114967808 C -0.5485406486321208 -0.8400181404613662 -0.4289987205929444 -0.7115643463215864 -0.2755603596669125 -0.6401043213182078 C -0.1269791286716816 -0.5704291259456351 0.04245324728579636 -0.5595144575365736 0.19874612469240183 -0.6095499601945193 L 0.28269922908834433 -0.4781947628403391 C 0.08474141739645935 -0.4038874547160327 -0.1345363024892693 -0.4106597193451669 -0.32753132905487303 -0.49704137811289506 C -0.5221913471999705 -0.5839299816089181 -0.6742583583066202 -0.7447305710561332 -0.750152398803114 -0.9439346038939644 L -0.750152398803114 -0.9439346038939644 C -0.7598612612162456 -0.969920088587944 -0.7684279045219593 -0.9961911280587796 -0.7755667739433793 -1.0227477223064727 C -0.7828104852986237 -1.0492586756661517 -0.7886251397772635 -1.0761395373542983 -0.792985615331646 -1.1032741693801214 L -0.7958411631002092 -1.1204074559915367 L -0.8129744497116245 -1.1204074559915367 L -0.86437430954587 -1.1181230177766817 L -0.9083497451818439 -1.1161241343386827 L -1.038562723428585 -1.111840812685829 C -1.065138104027895 -1.3402547255978958 -1.0157649387343142 -1.5710642381491748 -0.8980697732149853 -1.76861679945673 C -0.7781396913693988 -1.970944151512919 -0.5931009671314942 -2.126586081693431 -0.3732200933519445 -2.210084484477518 C -0.2580097357495409 -2.2545283146918345 -0.13575802944180815 -2.2779341002349303 -0.012278855404819655 -2.2791887404768905 Z M 0.7490101796956958 -1.96279404771943 C 0.8487841525331838 -1.8609205046885609 0.926542570963236 -1.7396173719376993 0.9774540011812078 -1.6064216862020015 C 1.0548968159992085 -1.4049671388905498 1.067672100214263 -1.1843938723650596 1.014005012618922 -0.9753456293482226 C 0.9624164137548203 -0.7729556911039603 0.8515453763724175 -0.5905902358938007 0.6956114364234536 -0.45163816859264383 L 0.612800551134941 -0.5812800372856826 C 0.7401156287977366 -0.7011514346438539 0.8294710625616475 -0.8557363350554035 0.8697998503061568 -1.0258888248518978 C 0.9117874555794758 -1.2007496961346067 0.89984105939131 -1.3842264309245915 0.8355332770833264 -1.5521662785991868 C 0.8025602331669952 -1.6381291947935854 0.7566252580057118 -1.7185394762603852 0.6993236485225836 -1.790604517274711 C 0.6419537042942878 -1.8624703070214341 0.5738601558714644 -1.9250739936902344 0.4974364212847431 -1.9762151222317041 L 0.47944647034276144 -1.9882084228596952 L 0.46916649837591473 -1.9685051432565692 L 0.44546545189678266 -1.9228163789594628 L 0.3675089978148418 -1.7720434567790133 C 0.28339675469168246 -1.8291062283071677 0.18723079744761106 -1.8659502993244572 0.08652309738763053 -1.8796976076540703 C -0.02134726943376264 -1.8941433065433566 -0.1311181582020582 -1.881281064657268 -0.23272714313836862 -1.8422899318858132 C -0.33622996259834315 -1.8029411978403793 -0.42794524138528345 -1.7377673180593054 -0.49914974994588823 -1.6529671148296812 C -0.5672259235092605 -1.5719438623957624 -0.614649255491839 -1.4756274670674967 -0.6373582619446279 -1.3722667691793349 L -0.792985615331646 -1.365127899757911 C -0.7703497280931975 -1.4997927248936134 -0.7139585295668505 -1.6265255578186628 -0.6290771734157777 -1.7334935619033272 C -0.5394647606416801 -1.8462111176793723 -0.4210748826642676 -1.9326357286028788 -0.2864114411874624 -1.983639546429987 C -0.19529642715936624 -2.0187642405338626 -0.0985073656534019 -2.0368637950354778 -0.0008566643305665256 -2.0370382897022297 C 0.09677266898030323 -2.036916197404564 0.19355416142815574 -2.018914839809261 0.28469811252634103 -1.9839251012068428 L 0.3009747348071896 -1.9776428961159918 L 0.3089702685591882 -1.993062854066264 L 0.33267131503832026 -2.039037173140228 L 0.3472346086580238 -2.0675926508259197 L 0.3472346086580238 -2.0675926508259197 L 0.41234109778140615 -2.1932367526429615 C 0.5384911568546629 -2.139063625326605 0.6528528363236548 -2.060785529201501 0.7490101796956958 -1.9627940477194321 Z" fill="url(#gradient-e27674c7-9c66-46af-af54-a65c8c8fb067_0)" transform="matrix(1,0,0,1,0,0)" fill-rule="evenodd"></path></g></g></g></g><defs><linearGradient id="gradient-1e5fabf5-adc8-4d96-b868-42b501d6653d" x1="0" y1="0" x2="1" y2="1"><stop stop-color="#3361e1" offset="0"></stop><stop stop-color="#000000" offset="1"></stop></linearGradient><clipPath id="SvgjsClipPath155899"><path d=" M -1.0457015928500168 -2.2789031857000337 h 2.0914031857000337 v 2.0914031857000337 h -2.0914031857000337 Z"></path></clipPath><clipPath id="SvgjsClipPath155894c3d6d31e-f443-45bd-9537-83d215ae4d40"><path d=" M -1.0457015928500168 -2.2789031857000337 L 1.0457015928500168 -2.2789031857000337 L 1.0457015928500168 -0.1875 L -1.0457015928500168 -0.1875 Z"></path></clipPath><linearGradient id="gradient-e27674c7-9c66-46af-af54-a65c8c8fb067_0" x1="0" x2="1" y1="0" y2="1"><stop stop-color="#3361e1" offset="0"></stop><stop stop-color="#000000" offset="1"></stop></linearGradient></defs></svg>